<svg width="44" height="44" viewBox="0 0 44 44" fill="none" xmlns="http://www.w3.org/2000/svg">
<path d="M26.5833 15.5834C25.152 15.2124 23.163 14.6667 21.5685 14.6667C13.7066 14.6667 7.33325 19.5573 7.33325 25.5903C7.33325 29.0571 9.43781 32.1467 12.72 34.1479L11.8307 37.0809C11.6166 37.7873 12.1452 38.5001 12.8834 38.5001H16.1176C16.3557 38.5001 16.5874 38.4229 16.7779 38.2799L19.3346 36.3611H23.8023L26.359 38.2799C26.5495 38.4229 26.7813 38.5001 27.0194 38.5001H30.2536C30.9917 38.5001 31.5204 37.7873 31.3061 37.0809L30.4169 34.1479C32.3724 32.9557 33.9098 31.377 34.8333 29.5626" stroke="#FF900E" stroke-width="3.5" stroke-linecap="round" stroke-linejoin="round"/>
<path d="M26.5833 15.5833L34.8333 12.8333L34.6793 19.4851L38.4999 21.0833V27.4999L34.9691 29.3333" stroke="#FF900E" stroke-width="3.5" stroke-linecap="round" stroke-linejoin="round"/>
<path d="M28.4167 23.8333C27.9105 23.8333 27.5 23.4229 27.5 22.9167C27.5 22.4105 27.9105 22 28.4167 22C28.9229 22 29.3333 22.4105 29.3333 22.9167C29.3333 23.4229 28.9229 23.8333 28.4167 23.8333Z" fill="#FF900E" stroke="#FF900E" stroke-width="3.5" stroke-linecap="round" stroke-linejoin="round"/>
<path d="M3.66675 18.3333C3.66675 18.3333 3.66675 22.7333 7.33341 23.8333" stroke="#FF900E" stroke-width="3.5" stroke-linecap="round" stroke-linejoin="round"/>
<path d="M23.4681 14.2138C23.7046 13.5324 23.8333 12.7992 23.8333 12.0353C23.8333 8.42596 20.9605 5.5 17.4167 5.5C13.8728 5.5 11 8.42596 11 12.0353C11 13.7617 11.6572 15.3317 12.7307 16.5" stroke="#FF900E" stroke-width="3.5" stroke-linejoin="round"/>
</svg>
